<svg xmlns="http://www.w3.org/2000/svg" width="1200" height="630" viewBox="0 0 1200 630" role="img" aria-label="Cue File Formatter SEO banner">
  <defs>
    <linearGradient id="bg" x1="0%" y1="0%" x2="100%" y2="100%">
      <stop offset="0%" stop-color="#0f172a" />
      <stop offset="100%" stop-color="#1d4ed8" />
    </linearGradient>
    <linearGradient id="card" x1="0%" y1="0%" x2="100%" y2="100%">
      <stop offset="0%" stop-color="#ffffff" stop-opacity="0.14" />
      <stop offset="100%" stop-color="#ffffff" stop-opacity="0.05" />
    </linearGradient>
  </defs>

  <rect width="1200" height="630" fill="url(#bg)" />
  <circle cx="1010" cy="120" r="170" fill="#38bdf8" opacity="0.12" />
  <circle cx="140" cy="580" r="220" fill="#22d3ee" opacity="0.1" />

  <rect x="80" y="88" width="1040" height="454" rx="28" fill="url(#card)" stroke="#ffffff" stroke-opacity="0.2" />

  <g transform="translate(130 148)">
    <rect x="0" y="0" width="76" height="76" rx="18" fill="#e2e8f0" />
    <path d="M16 22h28a4 4 0 0 1 4 4v28H26a10 10 0 0 1-10-10V22z" fill="#1d4ed8" />
    <path d="M36 34h24v20h-10a10 10 0 0 1-10-10V34z" fill="#60a5fa" />
  </g>

  <text x="230" y="190" fill="#ffffff" font-family="Inter, Arial, sans-serif" font-size="64" font-weight="700">
    Cue File Formatter
  </text>
  <text x="230" y="246" fill="#bfdbfe" font-family="Inter, Arial, sans-serif" font-size="30" font-weight="500">
    Format rekordbox .cue files into clean tracklists
  </text>

  <rect x="130" y="300" width="940" height="188" rx="18" fill="#0b1229" fill-opacity="0.6" stroke="#93c5fd" stroke-opacity="0.35" />
  <text x="170" y="357" fill="#93c5fd" font-family="ui-monospace, SFMono-Regular, Menlo, monospace" font-size="20">
    00:00:46 Nova - Midnight Run
  </text>
  <text x="170" y="404" fill="#93c5fd" font-family="ui-monospace, SFMono-Regular, Menlo, monospace" font-size="20">
    00:02:18 Atlas - Neon Tide
  </text>
  <text x="170" y="451" fill="#93c5fd" font-family="ui-monospace, SFMono-Regular, Menlo, monospace" font-size="20">
    00:03:45 Echo - Afterglow
  </text>
</svg>
